PathFileType	4	(X/Y/Z)	RBDS001\RBDS001runT35.trc
DataRate	CameraRate	NumFrames	NumMarkers	Units	OrigDataRate	OrigDataStartFrame	OrigNumFrames
150.000000	150.000000	5	32	mm	150.000000	3375	4500
Frame#	Time	L.ASIS			L.Heel.Bottom			L.Heel.Lateral			L.Heel.Top			L.Iliac.Crest			L.MT1			L.MT5			L.PSIS			L.Shank.Bottom.Lateral			L.Shank.Bottom.Medial			L.Shank.Top.Lateral			L.Shank.Top.Medial			L.Thigh.Bottom.Lateral			L.Thigh.Bottom.Medial			L.Thigh.Top.Lateral			L.Thigh.Top.Medial			R.ASIS			R.Heel.Bottom			R.Heel.Lateral			R.Heel.Top			R.Iliac.Crest			R.MT1			R.MT5			R.PSIS			R.Shank.Bottom.Lateral			R.Shank.Bottom.Medial			R.Shank.Top.Lateral			R.Shank.Top.Medial			R.Thigh.Bottom.Lateral			R.Thigh.Bottom.Medial			R.Thigh.Top.Lateral			R.Thigh.Top.Medial			
		X1	Y1	Z1	X2	Y2	Z2	X3	Y3	Z3	X4	Y4	Z4	X5	Y5	Z5	X6	Y6	Z6	X7	Y7	Z7	X8	Y8	Z8	X9	Y9	Z9	X10	Y10	Z10	X11	Y11	Z11	X12	Y12	Z12	X13	Y13	Z13	X14	Y14	Z14	X15	Y15	Z15	X16	Y16	Z16	X17	Y17	Z17	X18	Y18	Z18	X19	Y19	Z19	X20	Y20	Z20	X21	Y21	Z21	X22	Y22	Z22	X23	Y23	Z23	X24	Y24	Z24	X25	Y25	Z25	X26	Y26	Z26	X27	Y27	Z27	X28	Y28	Z28	X29	Y29	Z29	X30	Y30	Z30	X31	Y31	Z31	X32	Y32	Z32	

3376	22.5	2380.031656521971	982.747001561503	950.6254014115584	2002.503046308059	55.89933366310476	1104.231162822974	2024.269611843256	69.644348947542	1059.328047914727	2018.590229144809	101.296991785239	1105.467957785082	2321.039191893541	1050.189549692557	922.3993452679363	2229.078218312241	43.37070930193636	1102.207299318978	2174.61094272275	47.375436632256	1005.992581663063	2216.583885967957	1031.921893037599	1034.591073474859	2137.565594334812	172.0167994636096	1024.568506577215	2101.146000821445	198.3842032538907	1050.141794192703	2172.217689724846	239.6033732344573	996.9588919461719	2137.812719772703	270.1889853863179	1024.707503166083	2296.683904947264	583.7195268140757	937.3107679701309	2250.603534848827	583.8481370401076	994.7114879967826	2269.456772005777	689.5032666866479	919.4082552095874	2228.423240922134	690.7207053623738	974.6831824657461	2387.677855419897	967.2196171741834	1161.128978100335	1998.976409383037	412.8729506525767	1119.120764345117	2025.331601077151	396.717152238617	1165.533824730355	2047.515948436183	419.8097236716638	1117.879927809318	2334.674587498841	1041.605946514859	1199.57537491698	2084.671642877477	240.5212469453737	1206.184331389497	2099.14573115943	211.2060533756408	1101.265182697368	2222.761699746136	1024.765880141502	1109.11248363198	2166.425368634084	399.0160038022817	1174.734481034314	2154.491058965597	437.6179117996287	1138.593657204601	2238.862375157943	434.2768995238951	1186.514114860671	2226.539126620593	471.8285205401064	1149.968719515508	2465.832461949573	584.0277559072904	1206.932487146021	2416.721756248304	556.9136160329308	1159.194332470501	2400.014122165722	671.7247411615491	1222.666934810538	2350.402465829893	642.9534874614565	1181.308506663452	
3377	22.50666666666667	2380.273587134634	984.9541356142985	950.0260837098251	1979.645545937575	61.34892432903278	1103.503794960699	2001.836883227836	74.03356773879543	1058.441857163536	1996.786826525688	106.3917059404738	1104.269426150042	2323.000926316678	1053.640204298389	922.4156756859705	2205.134221733383	43.33601878880612	1102.234778685463	2151.363278174531	47.53630830818808	1005.92569893937	2217.383110317513	1036.016368274441	1034.401717461138	2116.256852754429	175.9954449619233	1024.103147751872	2080.165339769173	202.651547877351	1049.857523416848	2151.798991385332	243.3468936037056	996.905131795631	2117.695909713445	274.2292913291838	1024.731176567204	2284.004936783396	586.3340328356983	937.9919638059845	2237.96192770875	588.2170459228053	995.4429163488314	2260.561878096918	693.0768542706794	920.0320225540414	2219.779649092072	695.8810952045602	975.4251275021599	2388.276584202788	971.7423363807783	1160.45339080995	2013.667260661451	396.8475556232058	1118.782800696474	2041.146661758661	382.5278533470538	1165.04738169276	2061.688329054932	406.5400628420882	1117.103272190362	2335.118373679046	1046.170045092362	1199.281341840605	2109.127638480908	230.365410633434	1207.03565486297	2124.866599598021	200.9312698104477	1102.360484144479	2223.44671429581	1029.41782210069	1108.96242043096	2181.835199359579	392.4005370415728	1174.287521267004	2167.999734755714	430.132672576087	1137.82454706653	2252.314421929041	431.4422927644796	1185.940819515855	2238.213772295676	468.0057492326744	1149.040413767322	2474.73194354571	593.4803253082093	1206.80249774188	2426.040228034055	564.9248987570786	1159.467753114267	2406.703833458959	679.3983522434038	1222.840499248111	2357.484353437752	649.3109195721614	1181.788103277446	
3378	22.51333333333334	2380.822141354207	987.6639229914013	949.3088398469602	1957.312631841505	67.78238959505568	1102.761302288109	1979.954524229749	79.20711241828667	1057.532059190889	1975.696555157327	112.3352536819906	1102.979539440679	2325.289083280432	1057.473874707219	922.4569506413611	2181.283655588435	43.31349137987386	1102.240145666653	2128.289350345207	47.73329816969403	1005.848642026279	2218.520492858266	1040.503712440586	1034.312056634569	2095.434940577883	180.6955927079713	1023.515799178171	2059.66333464747	207.528223553825	1049.530558357748	2131.716253819041	247.8965574481165	996.7897524154204	2097.897956180741	278.9619587790864	1024.776744965319	2271.442059411092	589.845218582774	938.6839599185815	2225.503054001606	593.5335169757083	996.1721604123347	2251.888339680722	697.4053289812534	920.6282360878273	2211.394166899997	701.8226842565382	976.1256241843801	2389.308418604205	976.822881622069	1159.609569134701	2029.029508819347	380.028126438901	1118.158912822324	2057.453204790951	367.5704141765765	1164.288221341865	2076.369042282734	392.4815489977003	1116.149517297481	2336.115202353999	1051.295386809549	1198.904704818731	2133.910672135289	219.9621289700383	1207.531603599581	2151.127783098335	190.5476967902918	1103.144510613617	2224.540410303771	1034.512906999273	1108.889373729431	2197.307013326119	385.2937503685506	1173.684410059135	2181.549639526811	422.0190670219422	1136.885294960954	2265.545603389377	428.171430161851	1185.245821065937	2249.638975597075	463.6211398278098	1147.982145469807	2482.860076929267	603.037850565829	1206.562391308816	2434.540555237088	573.2777995449858	1159.565312040366	2412.961825675276	687.3504052260573	1222.953567489645	2364.185264196506	656.2222054819404	1182.052681365265	
3379	22.52	2381.711221500222	990.8192428026314	948.5542858448636	1935.691785260754	75.25378689959507	1101.998489669396	1958.776618132528	85.20950628753731	1056.596881043207	1955.513162056855	119.1469115740105	1101.586194800809	2327.856983353572	1061.635069853081	922.5421913988132	2157.599514195409	43.29168855559717	1102.187366858849	2105.428239841708	47.96974236147435	1005.73633033288	2220.003249150584	1045.339374351221	1034.291088849827	2075.254209523415	186.092251751135	1022.732361493049	2039.807893798078	212.9854350093099	1049.105497567702	2112.119236138651	253.2286849029784	996.5407935685756	2078.587022428342	284.3559828977153	1024.794201942332	2259.148072814799	594.2346562658568	939.3096095155793	2213.363856709423	599.7466404614302	996.8053620631224	2243.553906727067	702.4545151783971	921.1299208146019	2203.376360094899	708.4863638674104	976.710393495489	2390.719781405391	982.3958272184121	1158.67015361826	2045.163419394929	362.5450044799258	1117.288475655883	2074.35734689708	351.9497635435951	1163.30069299691	2091.662932127076	377.7340190331176	1115.048574458832	2337.577022206261	1056.924440765919	1198.478146053212	2159.066175123785	209.3765386230771	1207.676070399513	2177.90253414142	180.1725902978066	1103.60866559183	2226.02185689244	1039.994680336824	1108.86250777159	2212.914839360038	377.6972035213881	1172.934743582686	2195.233296323094	413.2971445825924	1135.814699507128	2278.631172774193	424.4048103424226	1184.447462550001	2260.902622837179	458.6396082066466	1146.8393242646	2490.20002586074	612.5422311351365	1206.202054197854	2442.174435461033	581.8072375118247	1159.497246287352	2418.760736290635	695.4519567600717	1223.001052663225	2370.454123196433	663.545594160334	1182.117867404775	
3380	22.52666666666667	2382.969073319802	994.3404456020204	947.851319815539	1914.98027087629	83.79675341249865	1101.202163942838	1938.458029381161	92.07576611069324	1055.626836106034	1936.431061231984	126.8269728191727	1100.073954837819	2330.672741876646	1066.059658830975	922.6836224993189	2134.169499689827	43.27402427690215	1102.036490058641	2082.821706449885	48.27207133457074	1005.558120882929	2221.831094194425	1050.472368214387	1034.292093673408	2055.858003230177	192.13597598663	1021.685143359579	2020.756637663126	218.9709263407385	1048.532074308647	2093.147735310593	259.2944896104473	996.0901911269247	2059.922800462544	290.356470742772	1024.736545096188	2247.257015750737	599.4582425646926	939.7942788494831	2201.667702592558	606.7825445399172	997.2585164378621	2235.655550069007	708.1709524935749	921.4740409023411	2195.822205789503	715.795957204142	977.115695725216	2392.441146797805	988.37565692526	1157.719028548177	2062.151706026711	344.5232897117679	1116.211620687256	2091.948209753286	335.765948990829	1162.12849865644	2107.65658538432	362.3991112907993	1113.831927131083	2339.395589191168	1062.981718996572	1198.03416328491	2184.639401766283	198.6663254472539	1207.476405091424	2205.17716429349	169.9182245744307	1103.744577123487	2227.858280044255	1045.798366772765	1108.839017167859	2228.730609759353	369.6200345942435	1172.052921085791	2209.135807667518	403.9952711428969	1134.654629713365	2291.648005612573	420.0963081575402	1183.566996707671	2272.091919536212	453.0388236090577	1145.656964017438	2496.732512151615	621.8482614988854	1205.710334494403	2448.894624200393	590.3478721031034	1159.282724758124	2424.067478362653	703.5806865846663	1222.966090955438	2376.226846331078	671.1320364275642	1182.001526166449	
